<?xml version="1.0" encoding="UTF-8"?>
<svg id="gentrace-sample-file-last-art" xmlns="http://www.w3.org/2000/svg" viewBox="150 110 270 200">
  <defs>
    <style>
      .cls-1 {
        fill: none;
      }

      .cls-2 {
        fill: #efbf43;
      }
    </style>
  </defs>
  <!-- Background rect removed for transparency -->
  <g>
    <path class="cls-2" d="M315.36,160.99c-2.71,1.23-5.42,2.46-8.13,3.69-1.5-3.24-3.27-6.4-5.49-9.44-11.57-15.9-31.28-23.75-50.13-20.46-18.37,3.21-31.88,18.67-32.53,37.52-.22,6.3,1.33,12.17,3.66,17.99,2.72,6.78,6.53,12.7,10.1,19.06l9.38,16.7c2.98,5.3,4.84,10.73,5.97,16.79,2.74,14.63-2.82,29.8-14.46,39-16.74,13.23-41.97,8.15-50.15-10.43-.99-2.25-1.63-4.59-1.92-6.95h9.39c.48,2.45,1.56,4.78,3.27,6.83,7.89,9.43,21.52,11.26,31.84,4.43,4.33-2.87,7.69-6.86,9.97-11.46-.04-.05.16-.39.47-.97.74-1.63,1.36-3.33,1.84-5.07.15-.8.25-1.66.26-2.58.04-3.37-1.08-5.82-2.39-8.69-6.84-14.97-6.46-14.25-6.75-14.8-5.87-11.41-9.25-14.81-15.39-26.29-5.22-9.76-7.82-14.64-8.75-19.66-2.64-14.35,3.23-26.33,5.44-30.7,4.79-9.47,11.5-15.88,13.86-17.33,6.9-6.6,15.84-11.28,26.07-13.03,23.98-4.09,48.26,8.05,59.68,25.92,2.55,3.99,4.04,7.6,4.89,9.93Z"/>
    <path class="cls-2" d="M290.56,256.95c-17.65-32.8-8.97-64.93,16.62-92.27,13.22,6.7,23.85,16.5,32.49,28.44,24.03,33.23,10.32,72.05-15.67,102.07-13.91-10.63-25.21-22.96-33.44-38.24Z"/>
    <path class="cls-2" d="M342.6,157.62c20.2.15,38.39,8.97,50.73,23.28,6.55,7.6,9.69,14.92,12.32,21.13,6.26,14.77,7.7,28.08,7.96,36.61-18.42,4.2-37.33,2.16-56.18-3.34,1.58-30.2-14.32-56.67-42.08-74.3,8.87-3.9,17.95-3.45,27.24-3.38Z"/>
  </g>
</svg>