<?xml version="1.0" encoding="UTF-8"?>
<svg id="gentrace-sample-file-last-art" xmlns="http://www.w3.org/2000/svg" viewBox="0 0 595.28 419.53">
  <defs>
    <style>
      .cls-1 {
        fill: #fff;
        fill: none;
      }

      .cls-2 {
        fill: #d4744a;
      }

      .cls-3 {
        fill: #efbf43;
      }
    </style>
  </defs>
  <!-- Background rect removed for transparency -->
  <g>
    <path class="cls-3" d="M412.99,157.76c-2.3,1.05-4.61,2.09-6.91,3.14-1.28-2.75-2.78-5.44-4.67-8.03-9.84-13.52-26.59-20.19-42.62-17.4-15.62,2.73-27.1,15.87-27.66,31.9-.19,5.36,1.13,10.35,3.11,15.3,2.31,5.76,5.55,10.8,8.59,16.21l7.97,14.2c2.53,4.51,4.11,9.12,5.08,14.28,2.33,12.44-2.4,25.34-12.29,33.16-14.23,11.25-35.68,6.93-42.64-8.87-.84-1.91-1.39-3.9-1.63-5.91h7.98c.41,2.08,1.33,4.06,2.78,5.81,6.71,8.02,18.3,9.57,27.07,3.77,3.68-2.44,6.54-5.83,8.48-9.74-.03-.04.14-.33.4-.82.63-1.39,1.16-2.83,1.56-4.31.13-.68.21-1.41.22-2.19.03-2.87-.92-4.95-2.03-7.39-5.82-12.73-5.49-12.12-5.74-12.58-4.99-9.7-7.86-12.59-13.08-22.35-4.44-8.3-6.65-12.45-7.44-16.72-2.24-12.2,2.75-22.39,4.63-26.1,4.07-8.05,9.78-13.5,11.78-14.73,5.87-5.61,13.47-9.59,22.16-11.08,20.39-3.48,41.03,6.84,50.74,22.04,2.17,3.39,3.43,6.46,4.16,8.44Z"/>
    <path class="cls-3" d="M391.91,239.34c-15.01-27.88-7.62-55.2,14.13-78.45,11.24,5.69,20.28,14.03,27.62,24.18,20.43,28.25,8.78,61.26-13.32,86.78-11.83-9.04-21.44-19.52-28.43-32.51Z"/>
    <path class="cls-3" d="M436.15,154.89c17.17.13,32.64,7.63,43.13,19.79,5.57,6.46,8.24,12.68,10.48,17.96,5.33,12.56,6.54,23.88,6.77,31.13-15.66,3.57-31.74,1.83-47.77-2.84,1.35-25.67-12.17-48.18-35.77-63.17,7.54-3.32,15.26-2.93,23.16-2.87Z"/>
  </g>
  <g>
    <path class="cls-3" d="M100.75,204.69c10.77,0,23.53-1.41,36.29-1.41,14.36,0,18.87,3.91,18.87,10.31,0,4.84-4.28,7.66-8.4,8.28-1.99.31-3.29.94-3.29,2.11,0,1.33,1.3,1.95,3.29,1.95,7.79,0,12.22,4.61,12.22,11.87,0,8.75-7.95,14.53-20.4,14.53-10.85,0-16.66-.78-22.77-.78s-11.46.16-15.82.78c2.22-17.26,2.22-34.84,0-47.65ZM129.17,238.2c2.06,0,3.59-2.27,3.59-4.92,0-3.36-1.53-5.94-3.59-5.94-2.22,0-3.44,2.58-3.44,5.94,0,2.66,1.22,4.92,3.44,4.92ZM129.17,221.17c2.37,0,3.36-1.87,3.36-4.37,0-2.81-.99-5.23-3.36-5.23s-3.21,2.42-3.21,5.23c0,2.5.76,4.37,3.21,4.37Z"/>
    <path class="cls-3" d="M194.73,243.59c0-1.41-.69-2.34-1.68-2.34-.92,0-1.91.78-2.44,2.03-2.06,4.76-5.5,9.84-13.22,9.84-9.47,0-13.75-5.78-13.75-17.11,0-9.76.99-17.34-.61-25.07h26.36c-1.22,9.14-1.76,16.25-1.76,20.39,0,3.36,1.83,4.61,3.59,4.61,1.6,0,3.74-1.25,3.74-5.39,0-4.69-.38-11.95-1.68-19.61h26.66c-.99,13.51-1.3,27.11-.31,40.62h-25.98c.53-2.66,1.07-6.33,1.07-7.97Z"/>
    <path class="cls-3" d="M256.76,220c.53,1.25,1.15,1.95,2.06,1.95s1.45-.7,1.45-1.8c0-4.22-.38-16.33-.84-20.93h25.06c-1.3,15.39-.99,37.73.76,52.34h-26.36c.38-2.66.61-5.55.61-7.97,0-1.41-.69-2.34-1.68-2.34-.92,0-1.68.78-2.37,2.03-2.6,4.69-6.26,9.84-13.98,9.84-11.31,0-18.57-8.12-18.57-21.01,0-13.67,7.18-22.73,18.49-22.73,8.48,0,13.29,5.86,15.36,10.62ZM252.03,235.94c3.36,0,6.04-3.12,6.04-6.48,0-2.27-1.45-3.75-3.67-3.75-3.44,0-6.19,3.05-6.19,6.33,0,2.34,1.53,3.91,3.82,3.91Z"/>
    <path class="cls-3" d="M288.78,220.63c0-8.75,7.87-11.25,18.11-11.25s20.93,1.8,27.66.86l-.46,19.14c-4.74-4.06-10.62-6.72-16.2-6.72-2.14,0-3.82.86-3.82,2.42,0,5.39,21.39-1.95,21.39,15.15,0,7.97-6.57,12.89-19.79,12.89-10.77,0-17.11-1.64-26.82-1.56l-.31-20.86c4.51,3.59,10.77,6.33,16.12,6.33,2.98,0,4.74-1.17,4.74-2.73,0-5.39-20.63,2.19-20.63-13.67Z"/>
  </g>
  <g>
    <path class="cls-2" d="M118.88,201.68c-3.7,0-6.83-.45-9.38-1.35-2.56-.9-4.62-2.09-6.2-3.58s-2.72-3.12-3.44-4.9c-.72-1.78-1.09-3.56-1.11-5.34,0-2.31.55-4.29,1.64-5.96,1.1-1.67,2.53-2.5,4.32-2.5.36,0,1.36.38,2.98,1.13,1.46.66,3.06,1.33,4.81,1.99,1.75.66,3.22.99,4.43.99,1.28,0,1.94-.53,1.99-1.58,0-.89-1.83-1.72-5.48-2.5l-1.3-.31c-2.33-.48-4.46-1.07-6.39-1.78s-3.49-1.82-4.67-3.34c-1.19-1.52-1.85-3.72-1.98-6.59,0-1.64.39-3.27,1.18-4.88.79-1.61,2-3.06,3.63-4.37,1.63-1.3,3.73-2.35,6.3-3.13,2.57-.79,5.63-1.18,9.19-1.18,2.42,0,4.73.23,6.92.7,2.19.47,4.15,1.17,5.89,2.11,1.73.94,3.11,2.11,4.13,3.51,1.02,1.4,1.52,3.04,1.52,4.91l-.03.82c-.11,1.32-.49,2.56-1.13,3.7s-1.48,2.07-2.53,2.79c-1.05.72-2.24,1.08-3.56,1.08-1.17,0-2.42-.35-3.77-1.06-2.81-1.53-4.95-2.65-6.42-3.37-1.47-.72-2.6-1.08-3.37-1.08-1.01,0-1.53.41-1.58,1.23,0,.41.21.87.62,1.37.91,1.16,3.39,2.23,7.43,3.19,1.71.41,3.45.91,5.22,1.51,1.77.59,3.42,1.38,4.95,2.36,3.4,2.19,5.1,5.47,5.1,9.83l-.03,1.06c-.25,3.22-1.34,5.9-3.27,8.05-1.93,2.15-4.37,3.76-7.33,4.85-2.96,1.08-6.04,1.63-9.26,1.63Z"/>
    <path class="cls-2" d="M174.63,201.75c-1.3,0-2.54-.23-3.72-.68-1.18-.46-2.13-1.19-2.88-2.21-.74-1.02-1.11-2.36-1.11-4.02l.17-2.47c.11-1.05.17-2.24.17-3.56,0-3.29-.37-5.71-1.11-7.28-.74-1.56-1.56-2.35-2.45-2.35-.78,0-1.47.56-2.07,1.68-.6,1.12-.93,2.74-.98,4.86l-.03,8.87c-.05,1.67-.5,3.02-1.37,4.06-.87,1.04-1.98,1.8-3.34,2.29-1.36.49-2.76.74-4.19.74-2.03,0-3.86-.42-5.5-1.25-1.63-.83-2.54-1.99-2.72-3.48-.27-4.27-.41-9.32-.41-15.17,0-7.65.11-14.86.34-21.64.07-1.69.5-3.08,1.28-4.16.79-1.08,1.79-1.88,3.01-2.38,1.22-.5,2.52-.75,3.89-.75,1.48,0,2.92.27,4.3.82,1.38.55,2.52,1.34,3.41,2.36.89,1.03,1.34,2.26,1.34,3.7v6.78c1.25-1.42,2.61-2.49,4.07-3.22,1.46-.73,2.93-1.1,4.42-1.1,2.33,0,4.31.49,5.96,1.47,1.64.98,3.02,2.31,4.13,3.99,1.11,1.68,1.97,3.58,2.6,5.72.63,2.13,1.07,4.38,1.34,6.75.26,2.36.39,4.69.39,6.97,0,3.81-.24,7.2-.72,10.17-.27,1.33-1.23,2.4-2.86,3.24-1.63.83-3.42,1.25-5.36,1.25Z"/>
    <path class="cls-2" d="M208.01,201.64h-.96c-3.26,0-6.16-.58-8.7-1.73-2.53-1.15-4.67-2.7-6.4-4.64-1.73-1.94-3.05-4.14-3.95-6.59-.9-2.45-1.35-4.98-1.35-7.59v-2.05c0-3.67.66-6.86,1.97-9.57,1.31-2.7,3.03-4.93,5.15-6.68,2.12-1.75,4.46-3.05,7.02-3.9,2.56-.86,5.08-1.28,7.57-1.28s4.98.44,7.21,1.32c2.23.88,4.02,2.16,5.38,3.85,1.36,1.69,2.04,3.77,2.04,6.23,0,2.17-.59,4.22-1.76,6.16-1.18,1.94-2.92,3.53-5.22,4.78-2.31,1.24-5.16,1.87-8.56,1.87-2.21,0-4.65-.33-7.29-.99.14,1.71.8,2.92,2,3.63,1.2.71,2.61,1.06,4.23,1.06s3.35-.25,5.05-.75c1.7-.5,3.1-1.08,4.19-1.75,1.1-.66,2.17-.99,3.22-.99,1.85,0,3.53.85,5.03,2.55,1.51,1.7,2.31,3.88,2.4,6.52,0,1.46-.55,2.83-1.64,4.09-1.1,1.27-2.53,2.38-4.31,3.34s-3.74,1.71-5.87,2.26c-2.13.55-4.28.83-6.42.86ZM202.33,176.54c2.51,0,4.46-.1,5.85-.29,1.39-.19,2.1-.74,2.12-1.63-.02-.66-.37-1.18-1.03-1.56-.66-.38-1.46-.57-2.4-.57-1.14,0-2.31.32-3.51.96-1.2.64-2.11,1.67-2.72,3.08h1.68Z"/>
    <path class="cls-2" d="M279.85,201.75c-1.3,0-2.54-.23-3.71-.7-1.18-.47-2.14-1.21-2.89-2.23-.75-1.02-1.13-2.36-1.13-4.02l.14-2.23c.11-.96.17-2.1.17-3.42,0-3.61-.17-6.16-.5-7.67-.33-1.51-.94-2.26-1.83-2.26-.66,0-1.29.43-1.88,1.28-.59.86-.91,2.04-.96,3.54-.02,5.11-.14,9.52-.34,13.22-.16,1.12-1.09,2.08-2.79,2.89-1.7.81-3.56,1.22-5.56,1.22-1.28,0-2.49-.21-3.65-.63-1.15-.42-2.09-1.11-2.83-2.07s-1.1-2.25-1.1-3.87l.14-2.02c.09-1.05.14-2.26.14-3.63,0-1.28-.02-2.42-.07-3.42-.05-.82-.07-1.55-.07-2.19,0-1.51-.22-2.6-.67-3.27-.45-.67-.94-1.01-1.49-1.01s-1.1.34-1.59,1.01c-.49.67-.74,1.6-.74,2.79,0,3.84-.02,7.68-.07,11.54-.05,1.67-.5,3.02-1.35,4.06-.86,1.04-1.96,1.8-3.32,2.29-1.36.49-2.77.74-4.23.74-2.01,0-3.83-.42-5.46-1.25-1.63-.83-2.54-1.99-2.72-3.48-.27-3.99-.41-8.4-.41-13.22,0-6.3.11-12.54.34-18.73.07-1.71.5-3.1,1.28-4.18.79-1.07,1.79-1.86,3.01-2.36,1.22-.5,2.52-.75,3.89-.75,2.21,0,4.25.6,6.09,1.81,1.85,1.21,2.83,2.89,2.95,5.03,2.53-3.47,5.27-5.2,8.22-5.2,1.89,0,3.53.37,4.91,1.1,1.38.73,2.56,1.74,3.54,3.03s1.79,2.79,2.43,4.5c1.35-2.72,2.91-4.83,4.69-6.35s3.64-2.28,5.58-2.28c4.89,0,8.39,2.58,10.51,7.74,1.71,4.18,2.57,9.65,2.57,16.4,0,4.59-.34,9.18-1.03,13.76-.27,1.33-1.23,2.4-2.86,3.24-1.63.83-3.42,1.25-5.36,1.25Z"/>
    <path class="cls-2" d="M326.97,201.71c-1.69,0-3.22-.35-4.61-1.06-1.38-.71-2.24-1.88-2.59-3.53l-.17-1.13c-1.01,1.23-2.2,2.17-3.58,2.83-1.38.65-2.77,1.08-4.16,1.3s-2.56.33-3.49.33c-2.72,0-5.06-.54-7.04-1.63-1.97-1.08-3.6-2.55-4.88-4.38-1.28-1.84-2.23-3.92-2.84-6.25-.62-2.33-.93-4.74-.93-7.23,0-2.69.35-5.35,1.04-7.98.7-2.63,1.71-4.99,3.03-7.1,1.32-2.11,2.95-3.8,4.88-5.07,1.93-1.27,4.11-1.9,6.56-1.9,1.89,0,3.74.43,5.55,1.3,1.8.87,3.58,2.31,5.34,4.31.05-.64.1-1.24.17-1.81l.07-.86c.2-1.3.96-2.33,2.28-3.1,1.31-.77,2.79-1.15,4.44-1.15,1.21,0,2.4.23,3.56.7,1.16.47,2.16,1.22,3,2.24.83,1.03,1.39,2.36,1.66,4.01.34,2.44.63,5.96.86,10.55s.34,9.02.34,13.29c0,3.9-.13,7.08-.38,9.52-.21,1.1-1.13,2-2.77,2.72-1.64.72-3.42,1.08-5.34,1.08ZM313.41,183.22c.96,0,2.11-.34,3.46-1.03.59-.32,1-.56,1.23-.74.23-.17.38-.36.44-.56.07-.21.1-.51.1-.93l.03-.72c.05-.57.07-1.11.07-1.61,0-.68-.1-1.31-.29-1.87-.19-.56-.59-1-1.18-1.32-1.23-.64-2.32-.96-3.25-.96s-1.8.26-2.45.79c-.65.53-1.14,1.19-1.47,1.99s-.5,1.62-.5,2.47c0,1.14.31,2.17.94,3.1.63.92,1.58,1.39,2.86,1.39Z"/>
  </g>
</svg>